<?xml version="1.0" encoding="utf-8"?>
<!-- Generator: Adobe Illustrator 23.0.0, SVG Export Plug-In . SVG Version: 6.00 Build 0)  -->
<svg version="1.1" id="Layer_1" xmlns="http://www.w3.org/2000/svg" xmlns:xlink="http://www.w3.org/1999/xlink" x="0px" y="0px"
	 viewBox="0 0 1024 1024" enable-background="new 0 0 1024 1024" xml:space="preserve">
<g>
	<g>
		<path fill="#FFFFFF" d="M78.025,513.468l-24.809,0c0.026-0.147,0.043-0.302,0.069-0.448l24.86,0
			C78.102,513.167,78.059,513.313,78.025,513.468z"/>
		<path fill="#1FA3ED" d="M205.818,465.308l-17.24-17.24l-16.723,16.723c-8.999-6.672-19.542-11.37-30.989-13.473
			c-0.259-0.052-0.517-0.086-0.776-0.138l0,24.912c0.259,0.069,0.517,0.138,0.776,0.207c4.819,1.336,9.353,3.37,13.482,6
			c6.956,4.405,12.758,10.465,16.861,17.62c2.327,4.051,4.095,8.456,5.224,13.103c0.948,3.862,1.448,7.896,1.448,12.034
			c0.009,4.267-0.526,8.405-1.517,12.361c-1.155,4.62-2.939,8.974-5.276,12.982c-4.138,7.137-9.973,13.163-16.938,17.542
			c-4.069,2.551-8.534,4.551-13.284,5.853c-4.31,1.207-8.87,1.853-13.577,1.853c-3.707,0-7.327-0.396-10.818-1.164
			c-5.095-1.112-9.913-2.983-14.309-5.517c-7.163-4.095-13.215-9.905-17.619-16.861c-2.758-4.345-4.87-9.146-6.206-14.258
			l-24.921,0.009c2.026,11.732,6.793,22.55,13.62,31.757l-15.516,15.516l17.24,17.24l15.775-15.775
			c9.318,6.508,20.188,10.948,31.937,12.646l0,22.895l24.395,0V598.79c11.361-2.086,21.835-6.732,30.8-13.335l16.913,16.913
			l17.24-17.24l-17.111-17.111c6.293-8.965,10.663-19.369,12.534-30.601l24.343,0V513.02l-24.291,0
			c-1.828-11.275-6.172-21.723-12.456-30.731L205.818,465.308z"/>
		<g>
			<path fill="#08293B" d="M4.108,513.472h24.515c5.303-45.544,41.546-81.787,87.09-87.09v-24.515
				C56.711,407.365,9.606,454.469,4.108,513.472z"/>
			<path fill="#08293B" d="M66.89,480.679c-6.9,9.362-11.666,20.383-13.605,32.342c-0.024,0.146-0.049,0.305-0.073,0.451H78.02
				c0.037-0.159,0.085-0.305,0.122-0.451c1.292-5.327,3.426-10.313,6.266-14.824c4.364-6.973,10.399-12.8,17.542-16.945
				c4.23-2.45,8.85-4.328,13.763-5.474v-24.808c-11.532,1.792-22.211,6.229-31.391,12.666
				C77.63,468.33,71.742,474.096,66.89,480.679z"/>
		</g>
		<circle fill="#08293B" cx="127.375" cy="524.787" r="25.6"/>
	</g>
	<g>
		<path fill="#08293B" d="M357.294,564.352h-20.236l-11.35-44.024c-0.421-1.567-1.138-4.805-2.149-9.717
			c-1.013-4.91-1.596-8.206-1.749-9.888c-0.229,2.064-0.802,5.38-1.72,9.946c-0.917,4.567-1.625,7.825-2.12,9.774l-11.293,43.91
			H286.5l-21.382-83.807h17.484l10.72,45.744c1.871,8.446,3.228,15.764,4.07,21.955c0.229-2.178,0.754-5.551,1.576-10.118
			c0.822-4.566,1.595-8.111,2.321-10.633l12.21-46.948h16.795l12.21,46.948c0.535,2.103,1.204,5.312,2.006,9.63
			c0.803,4.319,1.413,8.025,1.835,11.121c0.381-2.981,0.993-6.697,1.834-11.149c0.84-4.452,1.605-8.054,2.293-10.806l10.662-45.744
			h17.483L357.294,564.352z"/>
		<path fill="#08293B" d="M388.219,483.697c0-5.694,3.172-8.541,9.515-8.541c6.343,0,9.516,2.848,9.516,8.541
			c0,2.714-0.793,4.825-2.378,6.335c-1.587,1.51-3.966,2.265-7.137,2.265C391.39,492.297,388.219,489.43,388.219,483.697z
			 M406.447,564.352h-17.484v-64.087h17.484V564.352z"/>
		<path fill="#08293B" d="M444.824,564.352h-17.483v-83.807h48.037v14.56h-30.554v21.611h28.433v14.503h-28.433V564.352z"/>
		<path fill="#08293B" d="M490.825,483.697c0-5.694,3.172-8.541,9.515-8.541c6.343,0,9.516,2.848,9.516,8.541
			c0,2.714-0.793,4.825-2.378,6.335c-1.587,1.51-3.966,2.265-7.137,2.265C493.997,492.297,490.825,489.43,490.825,483.697z
			 M509.054,564.352H491.57v-64.087h17.484V564.352z"/>
		<path fill="#1FA3ED" d="M566.692,564.352l-24.305-69.992h-0.458c0.649,10.395,0.974,20.14,0.974,29.235v40.757h-12.439v-83.807
			h19.318l23.273,66.667h0.344l23.961-66.667h19.375v83.807h-13.184v-41.445c0-4.165,0.105-9.592,0.315-16.279
			c0.21-6.688,0.391-10.738,0.544-12.153h-0.459l-25.165,69.878H566.692z"/>
		<path fill="#1FA3ED" d="M677.039,564.352l-2.694-8.827h-0.458c-3.057,3.86-6.134,6.487-9.23,7.882
			c-3.094,1.395-7.071,2.092-11.923,2.092c-6.229,0-11.093-1.681-14.589-5.045c-3.497-3.362-5.245-8.12-5.245-14.274
			c0-6.534,2.426-11.465,7.279-14.789c4.854-3.325,12.248-5.139,22.184-5.445l10.949-0.344v-3.382c0-4.051-0.946-7.08-2.837-9.085
			c-1.891-2.007-4.825-3.01-8.798-3.01c-3.249,0-6.363,0.478-9.344,1.433c-2.981,0.956-5.847,2.083-8.598,3.382l-4.357-9.63
			c3.439-1.796,7.203-3.161,11.292-4.098c4.089-0.936,7.948-1.404,11.579-1.404c8.064,0,14.15,1.758,18.259,5.274
			c4.107,3.517,6.162,9.039,6.162,16.566v42.706H677.039z M656.977,555.18c4.891,0,8.818-1.366,11.78-4.099
			c2.961-2.732,4.442-6.564,4.442-11.493v-5.503l-8.14,0.343c-6.343,0.23-10.958,1.29-13.844,3.182
			c-2.885,1.891-4.327,4.786-4.327,8.684c0,2.829,0.84,5.016,2.522,6.564C651.091,554.406,653.613,555.18,656.977,555.18z"/>
		<path fill="#1FA3ED" d="M761.248,564.352h-13.529v-38.98c0-4.891-0.984-8.541-2.952-10.949c-1.969-2.407-5.093-3.611-9.372-3.611
			c-5.695,0-9.86,1.682-12.497,5.045c-2.638,3.364-3.955,9-3.955,16.911v31.585h-13.472v-63.4h10.549l1.891,8.311h0.687
			c1.911-3.019,4.625-5.349,8.141-6.993c3.515-1.642,7.413-2.465,11.694-2.465c15.209,0,22.815,7.738,22.815,23.215V564.352z"/>
		<path fill="#1FA3ED" d="M819.659,564.352l-2.694-8.827h-0.458c-3.057,3.86-6.134,6.487-9.23,7.882
			c-3.094,1.395-7.071,2.092-11.923,2.092c-6.229,0-11.093-1.681-14.589-5.045c-3.497-3.362-5.245-8.12-5.245-14.274
			c0-6.534,2.425-11.465,7.279-14.789c4.854-3.325,12.248-5.139,22.184-5.445l10.949-0.344v-3.382c0-4.051-0.946-7.08-2.837-9.085
			c-1.891-2.007-4.825-3.01-8.798-3.01c-3.249,0-6.363,0.478-9.344,1.433c-2.981,0.956-5.847,2.083-8.598,3.382l-4.357-9.63
			c3.439-1.796,7.203-3.161,11.292-4.098c4.089-0.936,7.948-1.404,11.579-1.404c8.064,0,14.15,1.758,18.259,5.274
			c4.107,3.517,6.162,9.039,6.162,16.566v42.706H819.659z M799.597,555.18c4.891,0,8.818-1.366,11.78-4.099
			c2.961-2.732,4.442-6.564,4.442-11.493v-5.503l-8.14,0.343c-6.343,0.23-10.958,1.29-13.844,3.182
			c-2.885,1.891-4.327,4.786-4.327,8.684c0,2.829,0.84,5.016,2.522,6.564C793.712,554.406,796.234,555.18,799.597,555.18z"/>
		<path fill="#1FA3ED" d="M901.632,500.952v7.395l-10.834,2.006c0.993,1.338,1.816,2.981,2.465,4.93
			c0.65,1.949,0.974,4.013,0.974,6.191c0,6.535-2.254,11.675-6.763,15.42c-4.51,3.746-10.72,5.618-18.63,5.618
			c-2.027,0-3.86-0.152-5.503-0.459c-2.906,1.796-4.357,3.898-4.357,6.306c0,1.453,0.678,2.542,2.036,3.268
			c1.356,0.726,3.848,1.089,7.479,1.089h11.065c6.993,0,12.305,1.49,15.936,4.471c3.63,2.981,5.445,7.28,5.445,12.898
			c0,7.184-2.962,12.726-8.885,16.624c-5.924,3.898-14.485,5.848-25.682,5.848c-8.636,0-15.23-1.529-19.777-4.587
			c-4.549-3.057-6.821-7.414-6.821-13.069c0-3.898,1.231-7.175,3.697-9.831c2.465-2.656,5.914-4.5,10.346-5.532
			c-1.796-0.764-3.277-1.997-4.442-3.697c-1.166-1.7-1.749-3.487-1.749-5.36c0-2.37,0.668-4.375,2.006-6.019
			c1.338-1.642,3.325-3.268,5.963-4.872c-3.288-1.413-5.954-3.717-7.997-6.908c-2.045-3.19-3.068-6.926-3.068-11.207
			c0-6.879,2.169-12.21,6.507-15.993c4.336-3.784,10.519-5.675,18.544-5.675c1.796,0,3.677,0.124,5.646,0.372
			c1.967,0.249,3.448,0.507,4.443,0.774H901.632z M851.818,574.211c0,2.904,1.309,5.14,3.927,6.707
			c2.617,1.567,6.296,2.35,11.035,2.35c7.337,0,12.801-1.051,16.394-3.152c3.593-2.103,5.389-4.892,5.389-8.369
			c0-2.752-0.984-4.711-2.952-5.876c-1.969-1.166-5.628-1.748-10.978-1.748h-10.204c-3.86,0-6.926,0.907-9.2,2.723
			C852.956,568.66,851.818,571.116,851.818,574.211z M857.609,521.474c0,3.975,1.022,7.032,3.066,9.172
			c2.045,2.141,4.977,3.21,8.8,3.21c7.796,0,11.694-4.164,11.694-12.496c0-4.128-0.965-7.309-2.895-9.545
			c-1.93-2.236-4.864-3.353-8.798-3.353c-3.899,0-6.851,1.109-8.856,3.325C858.611,514.003,857.609,517.232,857.609,521.474z"/>
		<path fill="#1FA3ED" d="M941.071,565.498c-9.859,0-17.569-2.875-23.13-8.627c-5.56-5.751-8.34-13.671-8.34-23.76
			c0-10.356,2.58-18.496,7.738-24.42c5.16-5.923,12.248-8.885,21.268-8.885c8.369,0,14.98,2.542,19.833,7.624
			c4.854,5.083,7.28,12.077,7.28,20.98v7.28h-42.248c0.192,6.153,1.854,10.882,4.987,14.187c3.133,3.306,7.548,4.958,13.242,4.958
			c3.746,0,7.233-0.352,10.462-1.06c3.228-0.707,6.696-1.882,10.404-3.526v10.949c-3.288,1.568-6.613,2.676-9.975,3.325
			C949.23,565.173,945.389,565.498,941.071,565.498z M938.607,510.009c-4.281,0-7.71,1.357-10.29,4.07
			c-2.58,2.714-4.119,6.669-4.614,11.866h28.776c-0.077-5.236-1.338-9.201-3.784-11.895
			C946.249,511.356,942.887,510.009,938.607,510.009z"/>
		<path fill="#1FA3ED" d="M1013.184,499.806c2.714,0,4.949,0.192,6.708,0.573l-1.319,12.554c-1.912-0.459-3.899-0.688-5.961-0.688
			c-5.389,0-9.756,1.758-13.099,5.274c-3.344,3.516-5.016,8.082-5.016,13.7v33.133h-13.472v-63.4h10.549l1.777,11.178h0.687
			c2.101-3.783,4.845-6.783,8.226-8.999C1005.646,500.914,1009.286,499.806,1013.184,499.806z"/>
	</g>
</g>
</svg>
