<?xml version="1.0" encoding="utf-8"?>
<!-- Generator: Adobe Illustrator 23.0.0, SVG Export Plug-In . SVG Version: 6.00 Build 0)  -->
<svg version="1.1" id="Layer_1" xmlns="http://www.w3.org/2000/svg" xmlns:xlink="http://www.w3.org/1999/xlink" x="0px" y="0px"
	 viewBox="0 0 1024 1024" enable-background="new 0 0 1024 1024" xml:space="preserve">
<g>
	<path fill="#FFFFFF" d="M345.169,518.653l-112.404,0c0.118-0.664,0.196-1.367,0.313-2.031l112.638,0
		C345.52,517.286,345.325,517.95,345.169,518.653z"/>
	<path fill="#1FA3ED" d="M924.176,300.446l-78.112-78.112l-75.769,75.769c-40.775-30.23-88.54-51.515-140.407-61.045
		c-1.171-0.234-2.343-0.39-3.515-0.625l0,112.873c1.172,0.313,2.344,0.625,3.515,0.937c21.833,6.054,42.376,15.271,61.084,27.183
		c31.518,19.958,57.803,47.414,76.394,79.831c10.545,18.356,18.552,38.314,23.668,59.365c4.296,17.497,6.562,35.776,6.561,54.522
		c0.039,19.333-2.382,38.08-6.874,56.007c-5.234,20.934-13.318,40.658-23.903,58.819c-18.747,32.338-45.188,59.639-76.745,79.48
		c-18.435,11.56-38.666,20.621-60.186,26.519c-19.528,5.468-40.189,8.397-61.514,8.397c-16.794,0-33.198-1.796-49.015-5.273
		c-23.083-5.039-44.915-13.513-64.833-24.996c-32.456-18.552-59.873-44.876-79.831-76.394
		c-12.498-19.684-22.067-41.439-28.12-64.599l-112.912,0.039c9.178,53.155,30.776,102.171,61.709,143.883l-70.301,70.301
		l78.112,78.112l71.473-71.473c42.219,29.487,91.47,49.601,144.703,57.295l0,103.733l110.529,0V905.231
		c51.476-9.451,98.929-30.503,139.548-60.42l76.628,76.628l78.112-78.112L846.65,765.8c28.511-40.618,48.313-87.758,56.788-138.649
		l110.295,0V516.622l-110.06,0c-8.28-51.086-27.964-98.422-56.436-139.235L924.176,300.446z"/>
	<g>
		<path fill="#08293B" d="M10.268,518.67h111.075c24.027-206.354,188.237-370.564,394.59-394.59V13.005
			C248.601,37.915,35.178,251.339,10.268,518.67z"/>
		<path fill="#08293B" d="M294.721,370.091c-31.262,42.42-52.858,92.351-61.641,146.535c-0.111,0.663-0.221,1.381-0.332,2.044
			H345.15c0.166-0.718,0.387-1.381,0.552-2.044c5.855-24.136,15.521-46.728,28.39-67.164c19.774-31.594,47.114-57.995,79.481-76.775
			c19.166-11.102,40.1-19.608,62.359-24.8v-112.4c-52.251,8.119-100.636,28.224-142.227,57.388
			C343.382,314.139,316.704,340.265,294.721,370.091z"/>
	</g>
	<circle fill="#08293B" cx="568.766" cy="569.934" r="115.991"/>
</g>
</svg>
