<?xml version="1.0" encoding="utf-8"?>
<!-- Generator: Adobe Illustrator 23.0.0, SVG Export Plug-In . SVG Version: 6.00 Build 0)  -->
<svg version="1.1" id="Layer_1" xmlns="http://www.w3.org/2000/svg" xmlns:xlink="http://www.w3.org/1999/xlink" x="0px" y="0px"
	 viewBox="0 0 1024 1024" enable-background="new 0 0 1024 1024" xml:space="preserve">
<g>
	<g>
		<path fill="#FFFFFF" d="M349.537,403.657l-81.672,0c0.085-0.482,0.142-0.993,0.227-1.476l81.842,0
			C349.792,402.663,349.65,403.146,349.537,403.657z"/>
		<path fill="#1FA3ED" d="M770.239,245.109l-56.756-56.756l-55.053,55.053c-29.627-21.965-64.333-37.43-102.019-44.355
			c-0.851-0.17-1.703-0.284-2.554-0.454l0,82.012c0.852,0.227,1.703,0.454,2.554,0.681c15.863,4.399,30.79,11.096,44.383,19.751
			c22.901,14.501,41.999,34.451,55.507,58.004c7.662,13.337,13.479,27.839,17.197,43.134c3.121,12.713,4.768,25.994,4.767,39.615
			c0.028,14.047-1.731,27.669-4.994,40.694c-3.803,15.211-9.677,29.542-17.367,42.737c-13.621,23.497-32.833,43.333-55.762,57.749
			c-13.395,8.399-28.094,14.983-43.731,19.268c-14.189,3.973-29.201,6.101-44.695,6.101c-12.202,0-24.121-1.305-35.614-3.831
			c-16.772-3.661-32.635-9.819-47.107-18.162c-23.582-13.48-43.503-32.606-58.004-55.507c-9.081-14.303-16.033-30.109-20.432-46.937
			l-82.041,0.028c6.669,38.622,22.362,74.237,44.837,104.545l-51.08,51.08l56.756,56.756l51.932-51.932
			c30.676,21.425,66.461,36.04,105.14,41.63l0,75.372l80.309,0v-76.848c37.402-6.867,71.881-22.163,101.394-43.901l55.677,55.677
			l56.756-56.756l-56.33-56.33c20.716-29.513,35.104-63.765,41.261-100.741l80.14,0v-80.31l-79.969,0
			c-6.016-37.119-20.319-71.513-41.006-101.167L770.239,245.109z"/>
		<g>
			<path fill="#08293B" d="M106.199,403.669h80.706c17.458-149.935,136.771-269.249,286.706-286.706V36.256
				C279.371,54.356,124.299,209.428,106.199,403.669z"/>
			<path fill="#08293B" d="M312.881,295.713c-22.715,30.822-38.407,67.101-44.788,106.471c-0.08,0.482-0.161,1.003-0.241,1.485
				h81.67c0.12-0.522,0.281-1.003,0.401-1.485c4.254-17.537,11.277-33.952,20.628-48.801c14.367-22.956,34.233-42.139,57.751-55.784
				c13.926-8.067,29.136-14.247,45.309-18.019V197.91c-37.965,5.899-73.121,20.508-103.341,41.698
				C348.238,255.059,328.854,274.041,312.881,295.713z"/>
		</g>
		<circle fill="#08293B" cx="512" cy="440.917" r="84.278"/>
	</g>
	<g>
		<path fill="#08293B" d="M131.282,950.096h-27.012L89.12,891.329c-0.562-2.091-1.518-6.414-2.869-12.97
			c-1.352-6.554-2.131-10.954-2.334-13.2c-0.306,2.755-1.071,7.181-2.296,13.276c-1.224,6.097-2.169,10.446-2.83,13.047
			l-15.074,58.614H36.782L8.239,838.225h23.339l14.309,61.062c2.498,11.274,4.309,21.043,5.433,29.307
			c0.306-2.908,1.006-7.41,2.104-13.506c1.097-6.095,2.129-10.827,3.098-14.194l16.299-62.669h22.42l16.299,62.669
			c0.714,2.807,1.607,7.091,2.678,12.855c1.072,5.765,1.887,10.713,2.449,14.845c0.509-3.98,1.326-8.94,2.448-14.883
			c1.121-5.943,2.143-10.751,3.061-14.424l14.233-61.062h23.338L131.282,950.096z"/>
		<path fill="#08293B" d="M172.563,842.433c0-7.6,4.234-11.401,12.701-11.401s12.702,3.801,12.702,11.401
			c0,3.623-1.059,6.441-3.175,8.456c-2.118,2.016-5.294,3.023-9.528,3.023C176.796,853.912,172.563,850.086,172.563,842.433z
			 M196.896,950.096h-23.339v-85.548h23.339V950.096z"/>
		<path fill="#08293B" d="M248.123,950.096h-23.338V838.225h64.123v19.435h-40.785v28.848h37.954v19.36h-37.954V950.096z"/>
		<path fill="#08293B" d="M309.529,842.433c0-7.6,4.234-11.401,12.701-11.401s12.702,3.801,12.702,11.401
			c0,3.623-1.059,6.441-3.175,8.456c-2.118,2.016-5.294,3.023-9.528,3.023C313.763,853.912,309.529,850.086,309.529,842.433z
			 M333.862,950.096h-23.339v-85.548h23.339V950.096z"/>
		<path fill="#1FA3ED" d="M410.8,950.096l-32.444-93.43h-0.611c0.866,13.877,1.3,26.885,1.3,39.024v54.406H362.44V838.225h25.787
			l31.067,88.992h0.46l31.985-88.992h25.863v111.871h-17.599v-55.324c0-5.56,0.14-12.804,0.421-21.731
			c0.28-8.927,0.522-14.334,0.726-16.223h-0.612l-33.592,93.277H410.8z"/>
		<path fill="#1FA3ED" d="M558.099,950.096l-3.597-11.783h-0.611c-4.081,5.153-8.188,8.659-12.32,10.521
			c-4.131,1.862-9.438,2.793-15.915,2.793c-8.315,0-14.807-2.244-19.474-6.734c-4.668-4.488-7.002-10.84-7.002-19.053
			c0-8.723,3.238-15.304,9.717-19.742c6.479-4.438,16.35-6.86,29.613-7.269l14.615-0.459v-4.515c0-5.407-1.262-9.45-3.787-12.128
			c-2.525-2.679-6.441-4.017-11.745-4.017c-4.337,0-8.493,0.638-12.473,1.912c-3.98,1.276-7.805,2.781-11.477,4.515l-5.816-12.855
			c4.591-2.397,9.615-4.22,15.073-5.47c5.459-1.25,10.609-1.875,15.457-1.875c10.764,0,18.888,2.347,24.373,7.04
			c5.482,4.694,8.225,12.065,8.225,22.114v57.007H558.099z M531.318,937.853c6.528,0,11.771-1.823,15.724-5.471
			c3.952-3.646,5.929-8.761,5.929-15.341v-7.346l-10.865,0.458c-8.468,0.307-14.627,1.722-18.48,4.248
			c-3.851,2.525-5.776,6.388-5.776,11.592c0,3.776,1.121,6.696,3.366,8.761C523.462,936.82,526.828,937.853,531.318,937.853z"/>
		<path fill="#1FA3ED" d="M670.506,950.096h-18.059v-52.033c0-6.529-1.314-11.401-3.94-14.616c-2.628-3.214-6.798-4.82-12.511-4.82
			c-7.602,0-13.162,2.245-16.681,6.734c-3.521,4.49-5.28,12.014-5.28,22.573v42.162h-17.983v-84.63h14.081l2.525,11.095h0.917
			c2.551-4.029,6.173-7.141,10.867-9.335c4.692-2.192,9.895-3.29,15.609-3.29c20.302,0,30.455,10.33,30.455,30.99V950.096z"/>
		<path fill="#1FA3ED" d="M748.478,950.096l-3.597-11.783h-0.611c-4.081,5.153-8.188,8.659-12.32,10.521
			c-4.131,1.862-9.438,2.793-15.915,2.793c-8.315,0-14.807-2.244-19.474-6.734c-4.669-4.488-7.001-10.84-7.001-19.053
			c0-8.723,3.237-15.304,9.716-19.742c6.479-4.438,16.35-6.86,29.613-7.269l14.615-0.459v-4.515c0-5.407-1.262-9.45-3.787-12.128
			c-2.525-2.679-6.441-4.017-11.745-4.017c-4.337,0-8.493,0.638-12.473,1.912c-3.98,1.276-7.805,2.781-11.477,4.515l-5.816-12.855
			c4.591-2.397,9.615-4.22,15.073-5.47c5.458-1.25,10.609-1.875,15.456-1.875c10.764,0,18.888,2.347,24.373,7.04
			c5.482,4.694,8.225,12.065,8.225,22.114v57.007H748.478z M721.697,937.853c6.528,0,11.771-1.823,15.724-5.471
			c3.952-3.646,5.929-8.761,5.929-15.341v-7.346l-10.865,0.458c-8.468,0.307-14.627,1.722-18.48,4.248
			c-3.851,2.525-5.776,6.388-5.776,11.592c0,3.776,1.121,6.696,3.366,8.761C713.841,936.82,717.207,937.853,721.697,937.853z"/>
		<path fill="#1FA3ED" d="M857.9,865.466v9.871l-14.462,2.678c1.326,1.786,2.424,3.979,3.291,6.581c0.867,2.601,1.3,5.356,1.3,8.264
			c0,8.723-3.009,15.585-9.027,20.584c-6.02,5-14.309,7.499-24.869,7.499c-2.705,0-5.153-0.203-7.346-0.612
			c-3.878,2.398-5.816,5.203-5.816,8.417c0,1.939,0.905,3.393,2.717,4.362c1.81,0.97,5.137,1.454,9.984,1.454h14.77
			c9.335,0,16.425,1.989,21.272,5.968c4.845,3.98,7.269,9.718,7.269,17.217c0,9.59-3.954,16.987-11.86,22.19
			c-7.908,5.203-19.335,7.806-34.281,7.806c-11.528,0-20.329-2.042-26.399-6.122c-6.072-4.081-9.105-9.897-9.105-17.445
			c0-5.203,1.643-9.578,4.935-13.123c3.291-3.545,7.894-6.007,13.811-7.384c-2.398-1.02-4.375-2.666-5.929-4.935
			c-1.556-2.27-2.334-4.655-2.334-7.155c0-3.163,0.891-5.841,2.678-8.035c1.786-2.192,4.438-4.362,7.96-6.504
			c-4.389-1.887-7.948-4.961-10.675-9.221c-2.729-4.259-4.095-9.246-4.095-14.959c0-9.182,2.896-16.299,8.686-21.349
			c5.788-5.051,14.041-7.575,24.754-7.575c2.398,0,4.909,0.166,7.537,0.497c2.626,0.332,4.603,0.677,5.931,1.033H857.9z
			 M791.406,963.257c0,3.877,1.747,6.861,5.242,8.953c3.493,2.091,8.404,3.137,14.73,3.137c9.794,0,17.088-1.403,21.884-4.208
			c4.796-2.807,7.193-6.53,7.193-11.172c0-3.673-1.314-6.288-3.94-7.843c-2.628-1.556-7.513-2.333-14.655-2.333h-13.62
			c-5.153,0-9.246,1.211-12.281,3.634C792.924,955.847,791.406,959.125,791.406,963.257z M799.135,892.86
			c0,5.306,1.364,9.387,4.093,12.243c2.729,2.857,6.644,4.284,11.747,4.284c10.407,0,15.609-5.559,15.609-16.68
			c0-5.51-1.288-9.757-3.865-12.741s-6.493-4.476-11.745-4.476c-5.204,0-9.145,1.48-11.822,4.438
			C800.473,882.887,799.135,887.197,799.135,892.86z"/>
		<path fill="#1FA3ED" d="M910.546,951.626c-13.16,0-23.452-3.838-30.875-11.516c-7.422-7.677-11.133-18.249-11.133-31.717
			c0-13.824,3.444-24.689,10.33-32.597c6.888-7.906,16.35-11.86,28.39-11.86c11.171,0,19.996,3.393,26.475,10.177
			c6.479,6.785,9.718,16.12,9.718,28.006v9.718h-56.395c0.256,8.214,2.475,14.527,6.657,18.938
			c4.182,4.413,10.075,6.619,17.676,6.619c5,0,9.655-0.47,13.966-1.415c4.309-0.944,8.938-2.512,13.888-4.706v14.615
			c-4.389,2.093-8.827,3.572-13.315,4.438C921.437,951.192,916.31,951.626,910.546,951.626z M907.257,877.556
			c-5.715,0-10.292,1.811-13.736,5.433c-3.444,3.622-5.498,8.902-6.159,15.84h38.412c-0.103-6.989-1.786-12.282-5.052-15.878
			S912.97,877.556,907.257,877.556z"/>
		<path fill="#1FA3ED" d="M1006.807,863.936c3.622,0,6.606,0.256,8.954,0.765L1014,881.458c-2.553-0.612-5.204-0.918-7.958-0.918
			c-7.193,0-13.023,2.346-17.485,7.039c-4.464,4.693-6.695,10.789-6.695,18.288v44.228h-17.983v-84.63h14.081l2.372,14.921h0.917
			c2.805-5.05,6.467-9.054,10.981-12.013C996.745,865.415,1001.604,863.936,1006.807,863.936z"/>
	</g>
</g>
</svg>
